<svg width="1004" height="213" viewBox="0 0 1004 213" fill="none" xmlns="http://www.w3.org/2000/svg">
<path fill-rule="evenodd" clip-rule="evenodd" d="M916.428 94.6159H916.517C920.022 94.6159 922.867 91.7689 922.867 88.2559V74.7699C922.867 71.2579 920.022 68.4099 916.517 68.4099H916.465C912.961 68.4099 910.115 71.2489 910.096 74.7559L910.08 88.2429C910.062 91.7599 912.908 94.6159 916.428 94.6159ZM947.536 1.14191H947.59C951.111 1.14191 953.957 4.00291 953.939 7.52291L953.885 23.2709C953.885 33.9039 949.937 43.0029 942.29 50.3539C936.669 55.7419 930.195 59.0229 922.867 60.2179H910.008C902.912 59.0599 896.597 55.9229 891.084 50.7879C883.969 44.1559 879.951 36.0829 879.044 26.5709C878.937 25.2449 878.937 24.7799 878.955 7.50291C878.955 3.99191 881.8 1.14191 885.303 1.14191C888.826 1.14191 891.671 3.98891 891.671 7.50091C891.671 16.0279 891.671 13.9259 891.565 23.2709C891.565 29.9839 894.357 36.7959 900.209 41.9559C904.797 45.9989 910.204 48.0229 916.411 48.0229C922.956 48.0229 928.594 45.8059 933.361 41.3739C938.11 36.9399 940.723 31.5209 941.169 25.1149V7.49991C941.169 3.98891 944.014 1.14191 947.536 1.14191Z" fill="#E05C2A"/>
<path fill-rule="evenodd" clip-rule="evenodd" d="M429.282 63.4909C429.286 69.9359 429.287 77.9299 429.289 87.8749C429.289 91.4129 432.156 94.2829 435.694 94.2829H435.699C439.235 94.2829 442.102 91.4159 442.102 87.8809V65.9379C442.102 62.4009 444.967 59.5329 448.505 59.5329H487.872C497.156 59.5329 504.674 51.9909 504.642 42.7069C504.624 37.9399 504.612 35.8509 504.612 35.8509C504.03 25.9489 500.131 17.5209 492.916 10.5639C485.7 3.60791 477.045 0.128906 466.95 0.128906C457.115 0.128906 448.62 3.44591 441.471 10.0789C436.604 14.5929 433.289 19.8159 431.256 25.6639C430.584 27.5949 430.145 29.3639 429.858 30.9709C429.154 34.9179 432.24 38.5269 436.25 38.5269C439.35 38.5269 442.031 36.3359 442.609 33.2869C442.945 31.5129 443.502 29.4149 444.419 27.2149C445.698 24.1469 447.911 21.4099 450.692 18.9589C455.318 14.8829 460.738 12.8469 466.95 12.8469C473.487 12.8469 479.132 15.0759 483.888 19.5429C488.645 24.0069 491.281 29.4439 491.8 35.8509C491.889 36.4979 491.902 36.9549 491.9 40.3159C491.898 43.8509 489.033 46.7219 485.499 46.7219H446.052C436.788 46.7219 429.278 54.2289 429.282 63.4909ZM504.7 74.1219C504.704 78.3069 504.708 82.8839 504.708 87.8789C504.709 91.4139 501.842 94.2829 498.307 94.2829H498.299C494.764 94.2829 491.897 91.4159 491.897 87.8809V74.1279C491.897 70.5929 494.764 67.7269 498.299 67.7269C501.833 67.7269 504.697 70.5869 504.7 74.1219Z" fill="#E05C2A"/>
<path fill-rule="evenodd" clip-rule="evenodd" d="M583.216 31.9729C581.639 33.6499 579.84 34.9259 577.711 35.2079C576.091 35.4239 558.498 35.4639 548.756 35.4699C545.217 35.4719 542.35 32.6009 542.35 29.0619V19.7419C542.35 16.2039 545.218 13.3379 548.756 13.3379H574.771C574.835 13.2729 574.965 13.2399 575.158 13.2399C578.199 13.2399 580.803 14.3399 582.971 16.5399C585.139 18.7409 586.224 21.3619 586.224 24.4019C586.224 27.3149 585.22 29.8389 583.216 31.9729ZM574.868 94.0949L575.158 94.1929C583.247 94.1929 590.172 91.3289 595.93 85.6019C601.69 79.8749 604.57 72.9349 604.57 64.7819C604.57 59.8649 603.421 55.3169 601.123 51.1439C599.753 48.6539 598.135 46.4239 596.27 44.4519C594.273 42.3399 593.831 39.1509 595.38 36.6899C597.687 33.0139 598.843 28.9179 598.843 24.4019C598.843 17.8669 596.513 12.2859 591.854 7.65787C587.195 3.03187 581.629 0.718872 575.158 0.718872H546.306C537.046 0.718872 529.538 8.22587 529.538 17.4869V31.4129C529.538 40.6759 537.046 48.1829 546.306 48.1829H575.158C579.753 48.1829 583.683 49.8019 586.952 53.0369C590.219 56.2709 591.854 60.1879 591.854 64.7819C591.854 69.4409 590.219 73.3709 586.952 76.5759C583.478 79.9789 579.553 81.3799 574.868 81.3799H548.756C545.218 81.3799 542.35 78.5109 542.35 74.9739V62.7839C542.35 59.2439 539.483 56.3769 535.945 56.3769C532.407 56.3769 529.538 59.2439 529.538 62.7839V77.4229C529.538 86.6859 537.046 94.1929 546.306 94.1929H574.868V94.0949Z" fill="#E47334"/>
<path fill-rule="evenodd" clip-rule="evenodd" d="M630.869 0.46991H630.7C627.235 0.46991 624.427 3.27591 624.424 6.73891C624.42 10.2089 627.232 13.0219 630.7 13.0219H630.869C634.336 13.0219 637.146 10.2119 637.146 6.74591C637.146 3.27891 634.336 0.46991 630.869 0.46991ZM624.34 87.6599L624.402 27.4849C624.406 24.0229 627.214 21.2169 630.679 21.2169H630.869C634.336 21.2169 637.146 24.0259 637.146 27.4929V87.6649C637.146 91.1349 634.336 93.9439 630.869 93.9439H630.617C627.148 93.9439 624.336 91.1299 624.34 87.6599Z" fill="#E05C2A"/>
<path fill-rule="evenodd" clip-rule="evenodd" d="M752.889 1.14191H752.712C749.243 1.14191 746.433 3.94791 746.433 7.41191C746.433 10.8809 749.243 13.6959 752.712 13.6959H752.889C756.357 13.6959 759.149 10.8849 759.149 7.41791C759.149 3.95191 756.357 1.14191 752.889 1.14191ZM746.344 88.3329L746.416 28.1579C746.416 24.6949 749.225 21.8889 752.693 21.8889H752.889C756.357 21.8889 759.149 24.6979 759.149 28.1649V88.3399C759.149 91.8059 756.357 94.6159 752.889 94.6159H752.623C749.154 94.6159 746.344 91.8029 746.344 88.3329Z" fill="#E05C2A"/>
<path fill-rule="evenodd" clip-rule="evenodd" d="M818.377 94.6159H818.466C821.951 94.6159 824.779 91.7919 824.779 88.3079V28.2619C824.779 24.7769 821.951 21.9519 818.466 21.9519H818.377C814.89 21.9519 812.062 24.7769 812.062 28.2619V88.3079C812.062 91.7919 814.89 94.6159 818.377 94.6159ZM850.035 13.7599H786.718C783.231 13.7599 780.404 10.9349 780.404 7.44991C780.404 3.96591 783.231 1.14191 786.718 1.14191H850.035C853.504 1.14191 856.331 3.96591 856.331 7.44991C856.331 10.9349 853.504 13.7599 850.035 13.7599Z" fill="#E47334"/>
<path fill-rule="evenodd" clip-rule="evenodd" d="M718.469 190.995C718.469 190.87 718.469 190.496 718.594 190.246C718.843 189.122 719.218 187.873 719.717 186.749C720.717 184.377 721.341 182.129 722.215 179.756C723.089 177.509 723.963 175.261 724.338 172.888C724.588 171.764 725.212 170.516 725.587 169.517C726.96 165.895 727.709 162.273 729.208 158.776C729.832 157.153 730.457 155.28 730.956 153.407L734.078 144.291L737.325 135.425C738.199 133.302 739.073 131.054 739.697 128.806C740.322 126.933 741.695 125.435 743.069 124.186C743.818 123.437 744.942 123.187 745.816 123.562C747.315 124.061 748.938 124.686 749.687 126.559C750.312 127.932 752.06 131.928 752.31 133.427C752.685 134.676 753.059 135.799 753.309 137.048C753.559 138.047 753.309 139.296 754.308 140.17V141.044C754.433 142.543 754.807 143.916 755.307 145.415C755.806 146.539 755.307 148.162 756.431 149.411C756.556 149.536 756.306 149.91 756.431 150.16C756.681 151.534 756.556 153.157 757.305 154.531C757.929 155.654 757.305 157.278 758.554 158.402C758.304 160.4 759.553 162.023 759.802 163.896C759.802 165.021 762.8 172.014 763.425 172.888C763.799 173.513 764.299 174.137 764.798 174.637C765.423 175.136 766.047 175.136 766.422 174.637C767.046 174.012 767.546 173.263 767.92 172.389C770.043 168.143 771.666 163.522 773.165 158.776L775.787 149.785C776.537 146.913 777.66 143.916 778.285 140.794C779.534 138.547 779.658 135.799 780.658 133.427C781.532 131.054 781.781 128.557 782.656 126.309C784.154 122.063 785.153 117.941 786.527 113.695L790.273 102.332C791.147 98.9599 792.271 95.4639 793.894 92.2169C794.019 91.8419 794.269 91.4679 794.394 91.0929C795.393 89.5949 796.642 88.9699 798.515 89.2199C798.764 89.3449 799.139 89.4699 799.264 89.7189C799.638 90.7189 800.638 91.5929 799.888 93.0909C798.14 97.2119 797.016 101.583 795.767 105.828C794.519 109.699 793.644 113.571 792.396 117.442C791.272 120.564 790.398 124.061 789.524 127.308C787.775 134.8 785.528 142.168 783.904 149.785C783.405 152.158 782.78 154.656 782.156 157.028C781.532 159.401 781.032 161.648 780.283 163.896C779.284 167.519 778.16 171.015 776.662 174.512C775.538 177.633 773.54 180.381 771.042 182.379C769.044 184.002 766.672 184.751 763.924 184.002C760.677 183.003 758.554 180.631 756.681 177.758C754.433 174.137 752.56 170.016 751.311 165.396C750.187 164.271 750.687 162.398 750.062 161.274C749.438 159.775 749.687 158.402 749.063 157.153C748.314 155.53 748.564 153.656 748.064 152.033C747.315 150.16 747.19 148.162 746.94 146.164C746.691 144.666 745.941 143.542 745.941 142.168C746.066 140.67 744.942 139.546 744.817 137.672C743.569 140.794 742.445 143.167 741.695 145.789C740.821 149.036 739.573 152.158 738.699 155.28C738.199 157.028 737.699 158.776 737.075 160.4C736.326 161.898 736.326 163.771 735.327 165.271C735.452 167.144 733.828 168.518 733.953 170.391C732.205 174.137 731.456 178.383 729.707 182.379L726.211 190.496C725.587 191.744 724.962 192.743 723.713 193.368C722.59 193.867 721.84 194.117 720.592 193.493C719.343 193.118 719.093 191.994 718.469 190.995Z" fill="#313E82"/>
<path fill-rule="evenodd" clip-rule="evenodd" d="M810.006 145.415C810.006 145.29 809.631 145.04 809.381 144.915C809.256 144.915 809.007 145.04 809.007 145.29L808.882 146.913C807.258 147.413 806.135 148.786 805.385 150.285C804.51 152.283 802.887 153.781 803.136 156.279C803.386 156.154 803.761 156.154 804.011 155.904C806.135 153.781 807.508 151.159 808.882 148.537C809.007 148.162 808.882 147.413 808.882 146.913C809.756 146.664 810.006 146.164 810.006 145.415ZM802.887 156.529C802.512 156.653 802.262 156.653 802.138 156.778V157.153C802.762 157.403 802.762 157.028 802.887 156.529ZM817.873 147.413C816.249 150.784 814.751 154.281 812.004 157.028C811.379 157.652 811.005 158.277 810.505 158.901C810.131 159.401 809.881 159.9 809.506 160.15C806.259 162.273 804.136 165.645 800.514 167.144C799.89 167.394 799.39 167.893 798.891 168.393C798.516 168.767 798.266 169.392 798.266 169.766C798.266 172.014 797.892 174.262 798.266 176.385C798.766 179.507 799.39 182.878 801.763 185.251C802.387 185.875 802.762 186.125 803.511 185.376C803.886 185.001 804.51 185.001 804.885 184.751C805.51 184.377 806.01 184.502 806.384 184.876L808.382 186.999C808.882 187.374 808.757 187.873 808.507 188.373C808.133 189.122 807.633 189.871 807.383 190.621C806.759 192.619 804.885 193.243 803.012 193.493C799.265 193.992 796.518 192.244 794.52 189.497C791.898 186 790.274 182.004 789.15 177.883C788.901 177.009 788.901 175.885 789.026 175.011C789.15 174.012 788.152 173.388 788.276 172.264C788.401 171.39 788.152 170.391 788.651 169.517C788.901 169.017 788.901 168.518 789.026 167.893C789.15 167.019 789.026 165.895 789.275 165.146C789.9 163.147 790.274 160.899 791.024 158.901C793.022 153.532 795.519 148.287 799.39 143.791C800.14 141.918 801.888 140.919 803.136 139.421C805.26 136.923 808.257 136.174 811.129 135.05C811.754 134.8 812.503 134.925 813.127 135.05C816.249 135.674 818.747 139.046 818.747 142.293V143.292C819.121 144.666 817.873 145.914 817.873 147.413Z" fill="#313E82"/>
<path fill-rule="evenodd" clip-rule="evenodd" d="M824.742 203.108C824.243 201.485 823.369 199.112 823.369 197.738C823.369 196.24 823.369 194.741 823.244 193.118C823.244 192.119 823.493 190.995 822.744 189.996C822.494 187.374 822.245 184.876 822.869 182.254C823.119 181.505 823.244 180.755 823.244 179.881C823.244 177.883 823.244 175.76 823.369 173.762C823.369 172.514 823.119 171.265 823.993 170.141C824.118 169.891 824.118 169.392 824.118 168.892C823.743 166.145 825.242 163.646 824.992 160.899C825.991 159.401 825.367 157.528 826.116 156.154C826.865 154.78 826.116 153.032 827.365 151.908C827.24 150.41 828.114 149.036 828.239 147.662C828.363 146.039 828.988 144.79 829.238 143.292C829.612 141.419 830.486 139.795 830.861 137.922C831.236 136.049 831.86 134.301 832.484 132.553C833.234 130.305 833.608 128.057 834.482 125.934C835.232 123.811 835.731 121.563 836.605 119.565C837.479 117.442 837.729 115.069 838.853 113.071C839.103 112.697 838.978 112.197 838.978 111.822C838.978 111.697 838.478 111.448 838.478 111.448C837.355 112.197 836.106 112.072 834.857 111.947C833.234 111.822 831.86 112.821 830.112 112.821L823.369 113.196V113.446C822.245 113.446 821.121 113.321 819.997 113.446C818.373 113.571 817.499 112.572 816.625 111.448C816.375 111.073 816.375 110.699 816.625 110.324C817.749 108.701 819.373 107.577 821.371 107.577C822.744 107.701 823.868 106.827 825.242 106.827C824.617 106.827 832.235 106.078 832.859 106.078C834.233 105.953 835.481 105.579 836.855 105.454C838.104 105.204 839.353 105.329 840.601 105.204C841.475 105.204 841.975 104.58 842.225 103.705C842.599 102.457 842.849 101.083 843.349 99.8339C845.471 94.7149 847.22 89.4699 849.344 84.4749L852.34 77.8549C852.715 76.8559 853.464 76.3569 854.588 76.3569C855.837 76.3569 857.086 76.3569 857.96 77.6059C858.459 78.2299 858.959 78.8539 858.834 79.7289C858.834 80.7289 858.959 81.7269 858.709 82.6019C858.459 84.0999 858.085 85.4739 857.71 86.9719C857.086 88.8449 856.586 90.8429 855.962 92.7169C855.338 94.5899 854.963 96.5879 854.089 98.3359C853.589 99.2099 854.089 100.334 853.464 101.208C852.965 101.832 852.715 102.707 853.34 103.331C853.964 103.955 855.088 103.83 855.712 103.581C856.836 102.956 858.085 102.956 859.209 102.831C861.456 102.831 863.579 102.956 865.702 102.082C866.202 101.957 866.951 101.957 867.7 102.332C869.199 103.206 869.074 105.953 867.95 106.578C867.076 106.952 866.326 107.701 865.452 107.701C863.33 107.951 861.456 108.95 859.458 108.701C856.711 108.326 854.089 109.824 851.342 109.575C850.967 109.575 850.717 109.949 850.592 110.449C849.843 112.946 848.844 115.444 848.219 118.066C847.594 120.689 846.72 123.187 845.721 125.684C845.846 128.182 844.347 130.305 843.848 132.678C843.473 135.05 842.599 137.298 841.725 139.546C841.226 141.044 841.101 142.792 840.601 144.291C840.227 145.789 839.977 147.413 839.103 148.911C839.353 150.535 838.353 152.033 838.104 153.656C837.854 155.53 836.98 157.528 836.605 159.401C836.106 161.274 835.856 163.147 835.232 164.896C834.607 166.52 835.107 168.393 834.108 170.016C834.357 172.264 832.984 174.137 833.234 176.385C833.359 177.633 832.235 178.633 832.359 180.006C832.609 181.13 832.734 182.504 832.235 183.627C831.361 186 831.735 188.498 831.61 190.87C831.485 193.243 831.61 195.615 831.61 197.863C831.61 198.488 831.735 198.987 831.985 199.487C832.359 200.111 832.359 200.735 832.484 201.485C832.609 204.107 831.735 205.231 829.238 205.98C828.863 205.98 828.363 206.105 828.114 205.98C826.865 205.231 825.367 204.856 824.742 203.108Z" fill="#313E82"/>
<path fill-rule="evenodd" clip-rule="evenodd" d="M846.345 183.503C845.346 182.878 844.472 182.254 844.097 181.255C843.098 179.507 841.849 177.758 842.099 175.635C842.224 174.761 842.099 174.012 841.725 173.263C841.225 172.139 841.225 170.765 841.725 169.641C842.099 168.892 842.099 168.143 842.224 167.269C842.224 166.27 841.974 165.146 842.349 164.396C843.098 163.022 843.098 161.524 843.473 160.15C844.347 157.028 845.221 154.031 846.345 150.909C847.719 146.913 849.343 142.917 851.965 139.421C852.84 138.047 853.838 136.674 855.462 136.299C856.211 136.174 856.96 135.55 857.335 135.674C858.459 136.174 859.832 136.424 860.332 137.672C860.582 138.547 861.456 139.421 860.457 140.295C860.582 141.668 859.333 142.792 859.458 144.166C857.21 148.162 856.461 152.782 854.713 156.903C854.838 158.402 853.714 159.401 853.714 160.899C853.714 162.023 853.089 163.147 852.84 164.396C852.465 165.645 852.465 167.019 851.965 168.268C851.216 170.516 851.341 172.888 851.341 175.136C851.341 176.01 851.965 176.26 852.84 175.76C854.213 174.886 855.337 173.887 856.336 172.514C858.958 169.017 861.331 165.396 863.704 161.773C864.328 160.899 865.077 160.15 865.826 159.401C866.95 158.277 868.824 158.277 869.947 159.401C871.196 160.65 871.945 162.273 871.945 164.146V172.264C872.195 172.389 872.32 172.389 872.57 172.389L874.068 168.268C874.568 167.019 874.193 165.645 875.192 164.521C874.942 162.897 876.066 161.648 876.066 160.15C876.191 158.652 877.065 157.278 876.94 155.779C878.189 154.656 877.44 152.907 878.314 151.534C878.938 150.16 878.314 148.287 879.313 146.913C879.438 144.166 880.812 141.793 881.311 139.046C881.686 137.423 881.935 135.674 882.685 134.051C883.059 133.052 883.434 131.928 884.058 131.179C886.306 128.806 887.804 128.682 890.177 131.054C891.177 132.053 891.177 133.302 890.677 134.426C890.177 135.799 889.303 136.923 889.178 138.547C888.928 139.92 888.304 141.419 888.304 142.917C887.055 144.416 888.054 146.414 887.18 147.912C886.306 149.411 887.305 151.284 886.056 152.658C886.306 154.78 884.932 156.529 885.182 158.652C885.182 159.9 883.933 160.774 884.308 162.148C883.434 165.271 883.059 168.518 881.81 171.515C880.687 174.262 879.563 176.884 877.44 179.132C876.316 180.381 874.818 181.005 873.319 181.505C871.196 182.254 868.948 181.255 867.824 179.257C866.95 177.758 866.076 176.135 865.951 174.262C865.951 173.263 865.327 172.264 865.077 171.265C864.952 171.265 864.828 171.265 864.828 171.39C864.078 172.389 863.454 173.388 862.83 174.387C861.206 177.509 858.709 179.756 856.211 182.254C854.713 183.752 852.964 184.502 850.717 184.377C849.218 184.252 847.844 184.377 846.345 183.503Z" fill="#313E82"/>
<path fill-rule="evenodd" clip-rule="evenodd" d="M904.538 179.007C906.162 176.635 907.41 174.137 908.285 171.515C908.784 170.141 909.658 168.767 909.533 167.269C910.657 165.77 910.158 164.146 910.283 163.272V159.65C910.158 159.276 910.033 158.652 909.783 158.527C908.909 158.277 908.16 157.278 907.161 157.652C905.662 158.152 904.164 158.652 902.915 159.9V160.275C902.166 162.398 901.541 164.521 900.667 166.645C899.918 168.643 899.668 170.89 898.919 172.888C898.544 174.012 898.669 175.261 898.669 176.51C898.669 177.259 898.544 177.883 898.17 178.508C898.045 178.633 897.92 179.132 898.045 179.257C898.794 180.131 898.544 181.38 899.044 182.254C899.293 182.629 899.918 182.878 900.293 182.753C902.166 182.004 903.414 180.631 904.538 179.007ZM896.297 190.496C896.172 190.496 896.047 190.496 895.922 190.371C894.299 189.247 892.8 187.998 891.801 186.375C891.052 185.251 890.552 183.752 890.427 182.254V176.884C890.677 175.386 890.052 173.013 891.177 170.89C891.426 170.266 891.301 169.517 891.177 168.767C890.927 167.144 891.801 165.521 892.301 164.021C893.799 159.526 896.671 155.904 900.417 153.157C902.041 151.908 903.789 150.784 906.037 150.909C906.786 150.909 907.41 149.91 908.285 150.285C910.033 150.909 912.031 150.784 913.654 151.783C915.153 152.782 916.526 154.031 917.4 155.53C918.15 156.404 918.774 157.528 918.524 158.901V159.276C918.774 166.52 918.524 167.269 915.652 175.885C914.653 178.633 913.03 180.88 911.781 183.378C910.907 185.001 909.408 186.125 908.16 187.374C906.162 189.247 904.039 190.371 901.291 190.621C899.668 191.869 897.92 190.371 896.297 190.496Z" fill="#313E82"/>
<path fill-rule="evenodd" clip-rule="evenodd" d="M925.018 180.88C924.519 180.506 924.019 179.881 923.519 179.382C923.145 179.007 923.02 178.508 923.02 178.008C923.02 176.51 922.77 174.886 923.769 173.637C923.644 171.639 924.643 169.891 925.018 168.143C925.268 166.27 926.142 164.521 926.766 162.772C927.141 161.274 927.391 159.65 928.015 158.152C928.515 156.778 928.639 155.155 929.513 153.906C929.264 152.283 930.513 150.909 930.513 149.161C930.388 147.787 931.511 147.038 932.635 146.414C932.885 146.164 933.51 146.164 933.76 146.414C935.134 147.038 936.258 147.912 936.258 149.785C936.258 151.284 936.258 152.782 936.383 154.78C940.004 149.286 944.5 145.04 948.62 140.794C950.868 138.422 953.366 136.549 955.863 134.551C956.987 133.676 958.361 133.052 959.734 132.428C960.608 131.928 961.857 132.553 962.856 131.678C963.855 132.053 964.979 132.178 965.853 132.678C967.227 133.552 967.976 135.05 968.351 136.674C968.476 137.672 968.351 138.672 967.477 139.296C966.478 139.92 965.229 140.17 964.48 139.296C963.106 137.797 962.107 138.172 960.733 139.296C959.609 140.17 958.486 140.919 957.486 141.793C956.363 142.917 955.364 144.291 953.74 144.915C953.49 145.04 953.366 145.29 953.241 145.54C950.618 149.036 947.372 152.033 944.874 155.53C941.502 160.275 938.006 165.021 935.633 170.391C934.385 173.263 932.635 175.76 931.262 178.508C930.637 179.756 929.638 180.631 928.265 181.255C926.641 181.879 926.142 182.004 925.018 180.88Z" fill="#313E82"/>
<path fill-rule="evenodd" clip-rule="evenodd" d="M966.483 190.995C965.984 190.995 965.734 190.745 965.484 190.371C965.109 189.497 964.485 188.498 964.61 187.374C964.735 184.252 964.735 181.005 964.735 177.883C964.61 176.51 965.609 175.386 965.484 173.887C965.359 172.639 965.234 171.14 966.109 170.016C966.233 169.766 966.233 169.392 966.233 169.142C965.984 166.52 967.482 164.146 967.107 161.524C968.231 159.775 967.357 157.652 968.231 156.029C969.105 154.281 968.107 152.408 969.48 150.909C969.73 149.411 969.355 147.912 970.354 146.539C970.105 145.165 971.228 144.041 971.228 142.668C971.103 141.169 972.352 139.92 972.103 138.297C973.226 136.049 973.226 133.302 974.35 131.054C974.85 130.18 974.6 128.931 975.099 127.932C975.724 126.933 976.099 125.56 976.099 124.436C976.099 123.187 976.723 122.313 977.097 121.313C979.22 114.695 981.094 108.076 984.092 101.707C984.466 99.4599 985.965 97.8359 986.964 95.9629C987.713 94.7149 988.712 93.9649 990.086 93.3409C992.708 92.0919 995.205 93.4659 995.205 96.3379C995.08 97.2119 995.08 97.9609 994.706 98.7109C994.206 99.9589 993.957 101.333 993.457 102.582C993.332 102.956 993.207 103.456 992.833 103.456C991.084 103.955 990.71 105.579 990.335 106.952C990.086 107.826 989.586 108.701 989.461 109.575C989.336 110.449 989.211 111.198 988.962 111.947C988.088 115.818 986.839 119.44 985.965 123.187C985.09 126.684 984.216 130.18 983.092 133.676C982.218 136.174 981.719 138.796 981.219 141.419C981.094 142.418 980.469 143.292 980.344 144.166C980.219 144.666 980.469 145.664 980.719 145.664C981.219 145.54 981.594 145.415 981.844 145.29L995.58 134.925C996.204 134.426 996.829 134.051 997.703 134.051H999.326C1000.32 134.051 1000.82 134.551 1001.2 135.425C1001.45 136.174 1001.95 136.798 1001.2 137.548C1000.32 138.672 999.576 139.795 998.827 140.919C998.327 141.668 998.078 142.543 996.829 142.543C996.204 142.543 995.705 143.167 995.08 143.666C991.709 146.164 988.462 148.786 984.966 151.159C983.592 152.033 982.343 153.032 981.219 154.281L985.965 158.027L987.963 159.526C992.583 163.397 996.954 167.643 1002.32 170.641C1003.32 171.265 1003.82 172.888 1003.32 174.012C1003.07 174.512 1002.45 175.261 1001.95 175.386C1000.57 175.511 999.326 175.511 998.078 174.761C995.33 173.138 992.708 171.639 990.086 169.891C986.839 167.643 983.717 165.146 980.969 162.398C980.095 161.524 979.095 160.774 977.972 160.15C976.723 159.526 976.348 159.65 976.223 161.024C976.099 162.772 974.975 164.396 975.349 166.27C974.35 167.643 974.6 169.267 973.976 170.89C973.476 172.514 973.101 174.262 972.977 176.01C972.852 177.758 971.853 179.257 972.103 181.13C972.227 182.878 971.978 184.751 972.103 186.5C972.103 187.499 971.728 188.248 971.353 189.247C970.854 190.621 969.98 191.12 968.481 191.12L966.483 190.995Z" fill="#313E82"/>
<path fill-rule="evenodd" clip-rule="evenodd" d="M720.322 81.3619H687.369C681.738 80.9749 678.341 78.1589 677.177 72.9169V6.7689C677.177 3.3099 674.373 0.506897 670.915 0.506897H670.625C667.168 0.506897 664.363 3.3129 664.363 6.7709C664.363 16.2449 664.359 42.7309 664.358 57.1289C664.358 57.1289 664.359 73.2939 664.558 73.8889L664.607 74.1789L664.655 74.3739V74.6639C664.768 74.8959 664.752 74.9109 664.752 75.1489L664.848 75.4409C664.968 75.6819 664.946 75.7159 664.946 76.0219L665.044 76.3139L665.14 76.5089L665.238 76.8009V77.0919L665.334 77.2849L665.432 77.5769L665.53 77.7709L665.626 78.0619L665.723 78.3529L665.819 78.5459L665.917 78.8379L666.013 79.1299L666.111 79.3239L666.209 79.6149L666.305 79.8099L666.403 80.0999L666.499 80.2929L666.597 80.5849L666.791 80.7789L666.887 81.0699L666.984 81.2649L667.276 81.7489L667.372 81.9449L667.568 82.2349L667.664 82.4299L667.762 82.7219L667.956 82.8189L668.149 83.2059V83.3049L668.441 83.5949V83.6919L668.731 83.9839L668.829 84.1769L669.024 84.4699L669.12 84.5649L669.314 84.8569L669.411 85.0519L669.8 85.4379L670.092 85.8259L670.479 86.2169L670.673 86.5079L670.867 86.6039L671.063 86.8959L671.159 86.9909L671.546 87.3819L671.838 87.5749L672.615 88.3529H672.711L673.101 88.6429V88.7379L673.489 88.9339L673.876 89.3209H673.974C674.321 89.6699 674.401 89.5569 674.75 89.9039H674.848C675.194 90.2509 675.276 90.1399 675.623 90.4859H675.72C675.915 90.6159 676.043 90.7119 676.108 90.7779H676.206L676.594 90.9719V91.0669L676.788 91.1169L677.565 91.4569V91.5539L677.953 91.7489H678.051C678.245 91.8119 678.373 91.8769 678.438 91.9429H678.536C678.73 92.1369 678.835 92.1369 679.022 92.1369C679.28 92.2659 679.44 92.3299 679.507 92.3299C679.763 92.4579 679.925 92.5239 679.991 92.5239C680.249 92.6539 680.411 92.7189 680.477 92.7189C680.864 92.9139 681.026 92.9769 680.962 92.9139H681.06C681.254 92.9769 681.414 93.0109 681.546 93.0109L681.738 93.0589L682.031 93.2039L682.273 93.2519L682.613 93.3019C682.741 93.3629 682.904 93.3969 683.098 93.3969C686.27 94.0299 683.776 93.8989 720.318 93.8859C723.776 93.8839 726.582 91.0799 726.582 87.6219C726.582 84.1649 723.78 81.3619 720.322 81.3619Z" fill="#E47334"/>
<path fill-rule="evenodd" clip-rule="evenodd" d="M20.2009 206.67C42.6609 162.206 75.7829 126.796 117.61 104.139C122.793 101.333 124.719 94.8569 121.912 89.6739C119.106 84.4909 112.63 82.5649 107.447 85.3719C61.5239 110.225 25.3319 149.116 1.14692 197.052C-1.50808 202.313 0.602924 208.732 5.86392 211.388C11.1269 214.044 17.5439 211.932 20.2009 206.67Z" fill="#E05C2A"/>
<path fill-rule="evenodd" clip-rule="evenodd" d="M31.6369 125.733C46.1449 112.346 61.3779 100.344 77.2569 90.4029C93.1399 80.4609 109.659 72.5819 126.791 67.3639C132.429 65.6459 135.607 59.6839 133.891 54.0459C132.173 48.4079 126.209 45.2289 120.573 46.9479C101.368 52.7969 83.1529 61.5339 65.9329 72.3139C48.7099 83.0969 32.4689 95.9279 17.1649 110.048C12.8319 114.044 12.5619 120.796 16.5579 125.128C20.5549 129.459 27.3059 129.731 31.6369 125.733Z" fill="#E05C2A"/>
<path fill-rule="evenodd" clip-rule="evenodd" d="M72.0749 42.0689C71.5769 50.9229 63.9929 57.6969 55.1389 57.1969C46.2839 56.6979 39.5099 49.1159 40.0099 40.2619C40.5079 31.4059 48.0919 24.6339 56.9449 25.1319C65.8009 25.6319 72.5749 33.2139 72.0749 42.0689Z" fill="#E05C2A"/>
<path fill-rule="evenodd" clip-rule="evenodd" d="M122.775 173.888C152.201 133.69 190.663 104.17 235.629 88.6519C241.201 86.7289 244.159 80.6549 242.238 75.0829C240.315 69.5109 234.242 66.5529 228.669 68.4739C179.305 85.4929 137.244 117.945 105.551 161.285C102.071 166.043 103.106 172.719 107.862 176.2C112.618 179.679 119.296 178.644 122.775 173.888Z" fill="#313E82"/>
<path fill-rule="evenodd" clip-rule="evenodd" d="M151.673 88.2179C169.354 79.4369 187.34 72.1879 205.37 67.1009C223.405 62.0119 241.471 59.0829 259.378 58.8799C265.272 58.8119 269.994 53.9789 269.928 48.0879C269.861 42.1939 265.028 37.4719 259.136 37.5379C239.059 37.7669 219.127 41.0419 199.574 46.5609C180.018 52.0809 160.831 59.8429 142.181 69.1039C136.902 71.7249 134.748 78.1299 137.37 83.4069C139.99 88.6859 146.394 90.8399 151.673 88.2179Z" fill="#313E82"/>
<path fill-rule="evenodd" clip-rule="evenodd" d="M250.362 118.951C267.28 108.781 284.628 100.114 302.193 93.5969C319.76 87.0789 337.533 82.7109 355.367 81.0709C361.236 80.5319 365.557 75.3369 365.018 69.4679C364.477 63.5979 359.282 59.2779 353.414 59.8189C333.422 61.6559 313.816 66.5209 294.768 73.5879C275.717 80.6579 257.215 89.9319 239.367 100.658C234.316 103.694 232.681 110.252 235.717 115.303C238.753 120.355 245.311 121.989 250.362 118.951Z" fill="#242C55"/>
<path fill-rule="evenodd" clip-rule="evenodd" d="M209.373 21.8409C206.18 30.1169 196.886 34.2369 188.61 31.0449C180.336 27.8539 176.215 18.5589 179.408 10.2829C182.598 2.0089 191.895 -2.1121 200.169 1.0809C208.443 4.2709 212.564 13.5669 209.373 21.8409Z" fill="#313E82"/>
<path fill-rule="evenodd" clip-rule="evenodd" d="M336.986 38.5279C336.019 47.3419 328.091 53.7079 319.275 52.7419C310.459 51.7769 304.094 43.8479 305.061 35.0309C306.025 26.2169 313.954 19.8509 322.772 20.8169C331.586 21.7829 337.952 29.7119 336.986 38.5279Z" fill="#242C55"/>
<path fill-rule="evenodd" clip-rule="evenodd" d="M361.662 152.124L353.344 149.877C351.713 155.904 348.212 160.834 343.6 164.324C338.987 167.809 333.294 169.782 327.384 169.781C325.064 169.781 322.708 169.48 320.34 168.84C314.313 167.208 309.385 163.708 305.893 159.093C302.408 154.48 300.435 148.787 300.437 142.876C300.437 140.56 300.737 138.203 301.377 135.835C303.01 129.808 306.51 124.877 311.124 121.387C315.737 117.903 321.428 115.929 327.339 115.932C329.657 115.932 332.014 116.232 334.382 116.871C340.41 118.504 345.34 122.003 348.83 126.616C352.313 131.23 354.288 136.923 354.286 142.834C354.286 145.151 353.986 147.509 353.344 149.877L369.976 154.37C371.013 150.529 371.513 146.65 371.513 142.834C371.511 133.084 368.27 123.778 362.58 116.237C356.893 108.696 348.686 102.887 338.875 100.24C335.035 99.2009 331.156 98.7039 327.339 98.7039C317.591 98.7069 308.282 101.946 300.743 107.637C293.202 113.323 287.392 121.53 284.746 131.342C283.709 135.18 283.209 139.062 283.209 142.876C283.211 152.626 286.451 161.933 292.143 169.474C297.829 177.015 306.034 182.825 315.847 185.471C319.688 186.508 323.567 187.008 327.384 187.008C337.132 187.006 346.438 183.767 353.978 178.072C361.519 172.388 367.33 164.183 369.976 154.37L361.662 152.124Z" fill="#242C55"/>
</svg>
